# xmcd CD database file
#
# Track frame offsets:
#	150
#	12519
#	26372
#	38913
#	49125
#	59232
#	72992
#	83587
#	100823
#	114479
#	126051
#	137641
#	147088
#	159456
#	173516
#	185831
#	198953
#	208480
#	221656
#	231185
#	241963
#	252911
#	261740
#	274336
#	289103
#	302690
#
# Disc length: 4183 seconds
#
# Revision: 0
# Processed by: cddbd v1.5.1PL2 Copyright (c) Steve Scherf et al.
# Submitted via: CDex 1.51
#
DISCID=8f10551a
DTITLE=Dean Mitchell - Waitin' for a Train [CD4 of 4)
DYEAR=1999
DGENRE=Country
TTITLE0=Away Out On the Mountain
TTITLE1=That Wonderful City
TTITLE2=The Soldier's Sweetheart
TTITLE3=Brakeman's Blues
TTITLE4=Nobody Knows But Me
TTITLE5=No Hard Times
TTITLE6=My Little Lady
TTITLE7=Long Tall Mama Blues
TTITLE8=Jimmie's Texas Blues
TTITLE9=Jimmie's Mean Mama
TTITLE10=Jimmie Rodgers' Last Blue Yodel
TTITLE11=Hobo's Meditation
TTITLE12=In the Hills of Tennessee
TTITLE13=Down the Old Road
TTITLE14=Desert Blues
TTITLE15=Caroline Sunshine Girl
TTITLE16=Dear Old Sunny South by the Sea
TTITLE17=Blue Yodel #7 (Anniversary Blue Yodel)
TTITLE18=Blue Yodel #6
TTITLE19=Blue Yodel #10 (Ground Hog)
TTITLE20=Ben Dewberry
TTITLE21=Sleep Baby Sleep
TTITLE22=In the Jailhouse Now #2
TTITLE23=Daddy and Home
TTITLE24=Miss the Mississippi and You
TTITLE25=Memphis Yodel
EXTD=YEAR: 1999
EXTT0=
EXTT1=
EXTT2=
EXTT3=
EXTT4=
EXTT5=
EXTT6=
EXTT7=
EXTT8=
EXTT9=
EXTT10=
EXTT11=
EXTT12=
EXTT13=
EXTT14=
EXTT15=
EXTT16=
EXTT17=
EXTT18=
EXTT19=
EXTT20=
EXTT21=
EXTT22=
EXTT23=
EXTT24=
EXTT25=
PLAYORDER=
